<svg width="220" height="220" viewBox="0 0 220 220" fill="none" xmlns="http://www.w3.org/2000/svg">
<path d="M0 0H220V220H0V0Z" fill="white"/>
<rect x="46" y="35.5" width="101.053" height="120" rx="12" fill="#FEF6F3"/>
<ellipse cx="28.5" cy="31.5" rx="1.5" ry="1.5" fill="#F4AB89"/>
<circle cx="28.5" cy="43.5" r="1.5" fill="#F4AB89"/>
<ellipse cx="28.5" cy="55.5" rx="1.5" ry="1.5" fill="#F4AB89"/>
<circle cx="28.5" cy="67.5" r="1.5" fill="#F4AB89"/>
<circle cx="28.5" cy="79.5" r="1.5" fill="#F4AB89"/>
<ellipse cx="40.5" cy="31.5" rx="1.5" ry="1.5" fill="#F4AB89"/>
<ellipse cx="40.5" cy="43.5" rx="1.5" ry="1.5" fill="#F4AB89"/>
<circle cx="40.5" cy="55.5" r="1.5" fill="#F4AB89"/>
<ellipse cx="40.5" cy="67.5" rx="1.5" ry="1.5" fill="#F4AB89"/>
<ellipse cx="40.5" cy="79.5" rx="1.5" ry="1.5" fill="#F4AB89"/>
<ellipse cx="52.5" cy="31.5" rx="1.5" ry="1.5" fill="#F4AB89"/>
<ellipse cx="52.5" cy="43.5" rx="1.5" ry="1.5" fill="#F4AB89"/>
<circle cx="52.5" cy="55.5" r="1.5" fill="#F4AB89"/>
<ellipse cx="52.5" cy="67.5" rx="1.5" ry="1.5" fill="#F4AB89"/>
<ellipse cx="52.5" cy="79.5" rx="1.5" ry="1.5" fill="#F4AB89"/>
<ellipse cx="64.5" cy="31.5" rx="1.5" ry="1.5" fill="#F4AB89"/>
<ellipse cx="64.5" cy="43.5" rx="1.5" ry="1.5" fill="#F4AB89"/>
<ellipse cx="64.5" cy="55.5" rx="1.5" ry="1.5" fill="#F4AB89"/>
<ellipse cx="64.5" cy="67.5" rx="1.5" ry="1.5" fill="#F4AB89"/>
<ellipse cx="64.5" cy="79.5" rx="1.5" ry="1.5" fill="#F4AB89"/>
<ellipse cx="156.5" cy="140.5" rx="1.49999" ry="1.5" fill="#F6BCA1"/>
<ellipse cx="156.5" cy="152.5" rx="1.5" ry="1.50001" fill="#F6BCA1"/>
<circle cx="156.5" cy="164.5" r="1.5" fill="#F6BCA1"/>
<ellipse cx="156.5" cy="176.5" rx="1.5" ry="1.50001" fill="#F6BCA1"/>
<circle cx="156.5" cy="188.5" r="1.5" fill="#F6BCA1"/>
<circle cx="168.5" cy="140.5" r="1.5" fill="#F6BCA1"/>
<ellipse cx="168.5" cy="152.5" rx="1.5" ry="1.50001" fill="#F6BCA1"/>
<circle cx="168.5" cy="164.5" r="1.5" fill="#F6BCA1"/>
<ellipse cx="168.5" cy="176.5" rx="1.5" ry="1.50001" fill="#F6BCA1"/>
<circle cx="168.5" cy="188.5" r="1.5" fill="#F6BCA1"/>
<circle cx="180.5" cy="140.5" r="1.5" fill="#F6BCA1"/>
<ellipse cx="180.5" cy="152.5" rx="1.5" ry="1.50001" fill="#F6BCA1"/>
<circle cx="180.5" cy="164.5" r="1.5" fill="#F6BCA1"/>
<ellipse cx="180.5" cy="176.5" rx="1.5" ry="1.50001" fill="#F6BCA1"/>
<circle cx="180.5" cy="188.5" r="1.5" fill="#F6BCA1"/>
<circle cx="192.5" cy="140.5" r="1.5" fill="#F6BCA1"/>
<ellipse cx="192.5" cy="152.5" rx="1.5" ry="1.50001" fill="#F6BCA1"/>
<circle cx="192.5" cy="164.5" r="1.5" fill="#F6BCA1"/>
<ellipse cx="192.5" cy="176.5" rx="1.5" ry="1.50001" fill="#F6BCA1"/>
<circle cx="192.5" cy="188.5" r="1.5" fill="#F6BCA1"/>
<rect x="61" y="50.5" width="99.0526" height="118" rx="15" fill="#EDF1F8" stroke="#6689C8" stroke-width="2"/>
<rect x="70.1055" y="62.1311" width="35.3684" height="35.3684" rx="4" fill="white"/>
<path fill-rule="evenodd" clip-rule="evenodd" d="M88.3731 78.844C91.593 78.844 94.2032 76.2338 94.2032 73.0139C94.2032 69.7941 91.593 67.1838 88.3731 67.1838C85.1532 67.1838 82.543 69.7941 82.543 73.0139C82.543 76.2338 85.1532 78.844 88.3731 78.844ZM85.458 80.7872C81.1649 80.7872 77.6846 84.2675 77.6846 88.5607C77.6846 90.7073 79.4247 92.4475 81.5713 92.4475H95.1749C97.3215 92.4475 99.0616 90.7073 99.0616 88.5607C99.0616 84.2675 95.5813 80.7872 91.2882 80.7872H85.458Z" fill="#013188"/>
<path opacity="0.4" fill-rule="evenodd" clip-rule="evenodd" d="M117.579 62.1311C116.475 62.1311 115.579 63.0265 115.579 64.1311V67.7101C115.579 68.8146 116.475 69.7101 117.579 69.7101H148.948C150.052 69.7101 150.948 68.8146 150.948 67.7101V64.1311C150.948 63.0265 150.052 62.1311 148.948 62.1311H117.579ZM117.58 74.7623C116.475 74.7623 115.58 75.6578 115.58 76.7623V80.3413C115.58 81.4458 116.475 82.3413 117.58 82.3413H148.948C150.053 82.3413 150.948 81.4458 150.948 80.3413V76.7623C150.948 75.6578 150.053 74.7623 148.948 74.7623H117.58ZM115.58 91.9203C115.58 90.8157 116.475 89.9203 117.58 89.9203H123.685C124.789 89.9203 125.685 90.8157 125.685 91.9203V95.4992C125.685 96.6038 124.789 97.4992 123.685 97.4992H117.58C116.475 97.4992 115.58 96.6038 115.58 95.4992V91.9203ZM130.21 89.9203C129.106 89.9203 128.21 90.8157 128.21 91.9203V95.4992C128.21 96.6038 129.106 97.4992 130.21 97.4992H136.315C137.42 97.4992 138.315 96.6038 138.315 95.4992V91.9203C138.315 90.8157 137.42 89.9203 136.315 89.9203H130.21Z" fill="#4C76C0"/>
<rect opacity="0.5" x="61.2627" y="108.867" width="98.5263" height="59.3684" rx="16" fill="#C6D3EA"/>
<path opacity="0.4" fill-rule="evenodd" clip-rule="evenodd" d="M112.526 134.133C111.422 134.133 110.526 135.028 110.526 136.133V139.712C110.526 140.816 111.422 141.712 112.526 141.712H143.895C144.999 141.712 145.895 140.816 145.895 139.712V136.133C145.895 135.028 144.999 134.133 143.895 134.133H112.526ZM73.3683 134.134C72.2638 134.134 71.3683 135.029 71.3683 136.134V139.713C71.3683 140.817 72.2638 141.713 73.3683 141.713H104.737C105.841 141.713 106.737 140.817 106.737 139.713V136.134C106.737 135.029 105.841 134.134 104.737 134.134H73.3683ZM71.3682 151.291C71.3682 150.186 72.2636 149.291 73.3682 149.291H79.4734C80.578 149.291 81.4734 150.186 81.4734 151.291V154.87C81.4734 155.974 80.578 156.87 79.4734 156.87H73.3682C72.2636 156.87 71.3682 155.974 71.3682 154.87V151.291ZM85.9999 149.291C84.8953 149.291 83.9999 150.186 83.9999 151.291V154.87C83.9999 155.974 84.8953 156.87 85.9999 156.87H94.6315C95.736 156.87 96.6315 155.974 96.6315 154.87V151.291C96.6315 150.186 95.736 149.291 94.6315 149.291H85.9999Z" fill="#4C76C0"/>
</svg>
