<svg width="76" height="11" viewBox="0 0 76 11" fill="none" xmlns="http://www.w3.org/2000/svg">
  <path d="M0.00100009 10H1.808V6.841H3.238C5.266 6.841 6.631 5.866 6.631 3.838C6.631 2.07 5.656 0.77 3.42 0.77H0.00100009V10ZM1.808 5.229V2.395H3.134C4.187 2.395 4.733 2.954 4.733 3.812C4.733 4.657 4.187 5.229 3.043 5.229H1.808ZM13.5107 6.763C13.5107 4.904 12.2627 3.552 10.4687 3.552C8.58374 3.552 7.24474 4.878 7.24474 6.815C7.24474 8.804 8.62274 10.117 10.5727 10.117C11.9897 10.117 12.8087 9.597 13.3417 8.908L12.2367 7.881C11.8987 8.297 11.4047 8.596 10.6897 8.596C9.83174 8.596 9.22074 8.141 9.01274 7.374H13.4717C13.4847 7.27 13.5107 6.971 13.5107 6.763ZM10.4557 5.034C11.1967 5.034 11.6517 5.476 11.8207 6.152H9.02574C9.22074 5.424 9.76674 5.034 10.4557 5.034ZM16.6261 10.117C18.2901 10.117 19.0831 9.259 19.0831 8.141C19.0831 6.88 18.2771 6.581 16.8991 6.074C16.2751 5.84 15.9631 5.658 15.9631 5.398C15.9631 5.06 16.3011 4.93 16.5611 4.93C17.0291 4.93 17.6011 5.138 18.0821 5.606L18.9141 4.345C18.1861 3.786 17.4711 3.552 16.6001 3.552C15.2871 3.552 14.2991 4.293 14.2991 5.437C14.2991 6.672 15.2091 7.166 16.2621 7.517C17.0811 7.79 17.4061 7.933 17.4061 8.206C17.4061 8.518 17.1331 8.726 16.6391 8.726C15.9371 8.726 15.3911 8.479 14.8711 7.998L14.0521 9.181C14.7411 9.779 15.6121 10.117 16.6261 10.117ZM22.1551 10.117C23.8191 10.117 24.6121 9.259 24.6121 8.141C24.6121 6.88 23.8061 6.581 22.4281 6.074C21.8041 5.84 21.4921 5.658 21.4921 5.398C21.4921 5.06 21.8301 4.93 22.0901 4.93C22.5581 4.93 23.1301 5.138 23.6111 5.606L24.4431 4.345C23.7151 3.786 23.0001 3.552 22.1291 3.552C20.8161 3.552 19.8281 4.293 19.8281 5.437C19.8281 6.672 20.7381 7.166 21.7911 7.517C22.6101 7.79 22.9351 7.933 22.9351 8.206C22.9351 8.518 22.6621 8.726 22.1681 8.726C21.4661 8.726 20.9201 8.479 20.4001 7.998L19.5811 9.181C20.2701 9.779 21.1411 10.117 22.1551 10.117ZM28.6592 10.117C30.6352 10.117 32.0262 8.765 32.0262 6.828C32.0262 4.878 30.6352 3.552 28.6592 3.552C26.6312 3.552 25.2792 4.93 25.2792 6.828C25.2792 8.726 26.6312 10.117 28.6592 10.117ZM28.6592 8.583C27.6842 8.583 27.0082 7.816 27.0082 6.828C27.0082 5.827 27.6712 5.073 28.6592 5.073C29.5952 5.073 30.2972 5.788 30.2972 6.828C30.2972 7.868 29.5692 8.583 28.6592 8.583ZM35.7666 10.117C36.5986 10.117 37.2356 9.805 37.6776 9.233L37.7036 9.246V10H39.3286V3.643H37.6256V4.371L37.5996 4.384C37.1446 3.838 36.4686 3.552 35.7276 3.552C34.0246 3.552 32.7376 4.917 32.7376 6.841C32.7376 8.804 34.0246 10.117 35.7666 10.117ZM36.0916 8.583C35.1296 8.583 34.4666 7.868 34.4666 6.854C34.4666 5.762 35.1686 5.073 36.0916 5.073C37.0016 5.073 37.7036 5.827 37.7036 6.854C37.7036 7.894 36.9626 8.583 36.0916 8.583ZM43.9222 10H45.7292V6.503H49.3302V4.865H45.7292V2.395H50.0452V0.77H43.9222V10ZM50.8351 2.798H52.4861L54.0981 0.887L52.3171 0.899999L50.8351 2.798ZM50.7571 10H52.4601V3.643H50.7571V10ZM56.0277 10.117C57.6917 10.117 58.4848 9.259 58.4848 8.141C58.4848 6.88 57.6788 6.581 56.3008 6.074C55.6767 5.84 55.3647 5.658 55.3647 5.398C55.3647 5.06 55.7028 4.93 55.9627 4.93C56.4307 4.93 57.0027 5.138 57.4837 5.606L58.3158 4.345C57.5878 3.786 56.8728 3.552 56.0018 3.552C54.6887 3.552 53.7007 4.293 53.7007 5.437C53.7007 6.672 54.6107 7.166 55.6637 7.517C56.4828 7.79 56.8078 7.933 56.8078 8.206C56.8078 8.518 56.5348 8.726 56.0407 8.726C55.3387 8.726 54.7927 8.479 54.2727 7.998L53.4537 9.181C54.1427 9.779 55.0137 10.117 56.0277 10.117ZM60.4518 2.785C61.0628 2.785 61.5308 2.317 61.5308 1.732C61.5308 1.16 61.0628 0.692 60.4518 0.692C59.8278 0.692 59.3728 1.16 59.3728 1.732C59.3728 2.317 59.8278 2.785 60.4518 2.785ZM59.5808 10H61.2838V3.643H59.5808V10ZM65.7225 10.117C67.0745 10.117 67.9455 9.636 68.4915 8.96L67.3865 7.894C67.0485 8.31 66.5415 8.583 65.8915 8.583C64.8775 8.583 64.1755 7.881 64.1755 6.828C64.1755 5.788 64.8645 5.073 65.8915 5.073C66.4895 5.073 67.0095 5.333 67.3475 5.749L68.4655 4.696C67.8025 3.916 66.7625 3.552 65.7745 3.552C63.8115 3.552 62.4465 4.878 62.4465 6.841C62.4465 8.791 63.8245 10.117 65.7225 10.117ZM72.0707 10.117C72.9027 10.117 73.5397 9.805 73.9817 9.233L74.0077 9.246V10H75.6327V3.643H73.9297V4.371L73.9037 4.384C73.4487 3.838 72.7727 3.552 72.0317 3.552C70.3287 3.552 69.0417 4.917 69.0417 6.841C69.0417 8.804 70.3287 10.117 72.0707 10.117ZM72.3957 8.583C71.4337 8.583 70.7707 7.868 70.7707 6.854C70.7707 5.762 71.4727 5.073 72.3957 5.073C73.3057 5.073 74.0077 5.827 74.0077 6.854C74.0077 7.894 73.2667 8.583 72.3957 8.583Z" fill="url(#paint0_linear_8360_766)"/>
  <defs>
    <linearGradient id="paint0_linear_8360_766" x1="77" y1="5" x2="-1" y2="5" gradientUnits="userSpaceOnUse">
      <stop stop-color="#E95814"/>
      <stop offset="1" stop-color="#F08A5B"/>
    </linearGradient>
  </defs>
</svg>
